<svg xmlns="http://www.w3.org/2000/svg" viewBox="0 0 1024 1024">
  <path d="M0 0 C337.92 0 675.84 0 1024 0 C1024 337.92 1024 675.84 1024 1024 C686.08 1024 348.16 1024 0 1024 C0 686.08 0 348.16 0 0 Z " fill="transparent" />
  <path d="M0 0 C3.92353234 1.61612165 6.71400006 4.31329165 9.75 7.1875 C10.82877238 8.19341092 11.90819893 9.19862075 12.98828125 10.203125 C13.5085791 10.68845703 14.02887695 11.17378906 14.56494141 11.67382812 C16.32409438 13.29950334 18.1227532 14.87426395 19.9375 16.4375 C28.42711228 23.81516722 36.64828202 31.48557558 44.48828125 39.55078125 C46.49996547 41.51240801 48.53559268 43.34300913 50.6640625 45.171875 C55.69058291 49.53375096 60.36904386 54.22282251 65.0625 58.9375 C65.92166016 59.79279297 66.78082031 60.64808594 67.66601562 61.52929688 C72.11638946 65.98647037 76.40532259 70.5137298 80.50952148 75.29125977 C82.40758981 77.46727618 84.42808579 79.48993397 86.5 81.5 C89.84933729 84.80986698 92.99925956 88.20746949 96.0625 91.78125 C97.98602777 93.98399955 99.96105114 96.133137 101.95019531 98.27661133 C106.77940551 103.48232781 111.36191603 108.81328962 115.81640625 114.34765625 C117.99397068 116.99267637 120.25318763 119.53212525 122.5625 122.0625 C129.66602718 129.87883787 136.02663074 138.28225147 142.44140625 146.6640625 C144.08586108 148.81225226 145.74040421 150.95108833 147.40234375 153.0859375 C174.56933701 188.04637939 202.38669864 227.51089406 216.8203125 269.6796875 C217.92659362 272.79339263 219.17301165 275.78762594 220.5 278.8125 C226.59099703 293.30487224 229.63735387 308.51683335 232 324 C232.1045752 324.66700928 232.20915039 325.33401855 232.31689453 326.02124023 C237.43098948 364.15419683 232.44475328 411.41739233 214.2109375 445.62109375 C212.95867439 448.08118483 211.88964464 450.59582405 210.81298828 453.13647461 C202.20591459 472.86554172 189.42655122 491.11144359 175 507 C174.05327931 508.05589446 173.10666683 509.11188595 172.16015625 510.16796875 C163.69491956 519.55466063 155.02673992 528.26566161 145 536 C144.37899414 536.48098145 143.75798828 536.96196289 143.11816406 537.45751953 C131.5416838 546.33468975 119.35962384 553.72172566 106.52490234 560.63720703 C104.42804918 561.76896437 102.34701656 562.92319731 100.26953125 564.08984375 C78.13173281 575.98115814 51.76400108 581.68761769 27 585 C26.29206299 585.09498779 25.58412598 585.18997559 24.85473633 585.2878418 C16.61894358 586.25078267 8.34387062 586.28613859 0.0625 586.3125 C-0.72668823 586.31511841 -1.51587646 586.31773682 -2.32897949 586.32043457 C-17.17614382 586.32567695 -31.41734112 584.93891858 -46 582 C-46.77633789 581.84515137 -47.55267578 581.69030273 -48.35253906 581.53076172 C-52.96850687 580.57255047 -57.48526497 579.35649399 -62 578 C-63.13719482 577.67056396 -63.13719482 577.67056396 -64.29736328 577.33447266 C-127.59720651 558.75091701 -176.25388331 513.83287939 -207.68359375 456.953125 C-219.51644847 434.20945618 -226.57475808 408.28799179 -230 383 C-230.11569336 382.1745166 -230.23138672 381.3490332 -230.35058594 380.49853516 C-233.67511238 356.0874352 -232.71791527 330.98554069 -227 307 C-226.83129395 306.2869873 -226.66258789 305.57397461 -226.48876953 304.83935547 C-222.71866663 289.13003286 -218.2474311 273.132194 -210.45703125 258.8984375 C-209.21373072 256.42516943 -208.21431745 254.01351991 -207.2265625 251.43359375 C-204.79734633 245.26760592 -201.7231142 239.50509007 -198.5625 233.6875 C-197.64476807 231.99149658 -197.64476807 231.99149658 -196.70849609 230.26123047 C-190.87278786 219.58417908 -184.5902928 209.22559088 -178 199 C-177.62182129 198.4112207 -177.24364258 197.82244141 -176.85400391 197.21582031 C-163.37838304 176.34245058 -148.5200788 156.15149102 -132.67382812 137.02539062 C-130.90375717 134.88354281 -129.14625457 132.73182245 -127.390625 130.578125 C-121.76216183 123.68576057 -116.09564658 116.87989526 -110.07421875 110.32421875 C-107.78928765 107.76389105 -105.64586818 105.11521848 -103.5 102.4375 C-99.94335526 98.03816591 -96.15872635 94.05009549 -92.109375 90.10546875 C-90.17854196 88.17821133 -88.39327187 86.20061436 -86.625 84.125 C-82.9315206 79.81307754 -78.90227403 75.86927934 -74.84375 71.90625 C-72.73478224 69.80246671 -70.77815995 67.60926526 -68.83984375 65.34765625 C-64.61834198 60.47492253 -60.0782677 55.92781135 -55.51196289 51.3815918 C-54.06475615 49.93974779 -52.62297974 48.49262884 -51.18164062 47.04492188 C-46.47358912 42.33384547 -41.70054194 37.75921877 -36.64233398 33.42407227 C-34.6619289 31.70685763 -32.82024492 29.88525366 -31 28 C-27.85356943 24.81080241 -24.59393415 21.83525178 -21.19921875 18.9140625 C-18.59608118 16.64845431 -16.04841276 14.32696448 -13.5 12 C-9.04991029 7.94092236 -4.55463859 3.94126319 0 0 Z " fill="#ffffff" transform="translate(511,204)" />
</svg>