<svg version="1.1" xmlns="http://www.w3.org/2000/svg" width="24" height="24" viewBox="0 0 1024 1024"><path d="M0 0 C337.92 0 675.84 0 1024 0 C1024 337.92 1024 675.84 1024 1024 C686.08 1024 348.16 1024 0 1024 C0 686.08 0 348.16 0 0 Z " fill="transparent" transform="translate(0,0)"/><path d="M0 0 C7.48454678 3.02260543 12.68119874 8.00519482 18.41796875 13.49462891 C20.99645486 15.94816986 23.62344335 18.34815986 26.25 20.75 C26.75499023 21.21349854 27.25998047 21.67699707 27.78027344 22.15454102 C30.49071859 24.63822473 33.22342019 27.09057124 36 29.5 C45.32130438 37.62040013 54.19672989 46.08229207 62.86108398 54.89794922 C66.7422321 58.82737604 70.70947464 62.57074777 74.89038086 66.17895508 C82.61895759 72.85034194 89.99526867 79.8340875 97.1965332 87.06616211 C98.69304925 88.56806925 100.194883 90.06451062 101.69726562 91.56054688 C107.01046486 96.86997249 112.14039061 102.27155895 117 108 C121.86939033 113.56014447 126.87158879 118.92874434 132.125 124.125 C135.9642794 127.92250919 139.66760606 131.77315384 143.16796875 135.88671875 C145.04894563 138.05645967 146.98928109 140.16470243 148.94287109 142.26904297 C153.70060748 147.39662725 158.2304549 152.63984053 162.625 158.0859375 C168.87469819 165.75415271 175.33953508 173.24346644 182.0625 180.5 C187.75422301 186.71080815 192.87274132 193.32397865 198 200 C198.85524502 201.10824561 199.71070869 202.21632252 200.56640625 203.32421875 C202.64681493 206.02104482 204.72051334 208.72295508 206.79248047 211.42626953 C208.73220838 213.95426915 210.67953369 216.47641515 212.625 219 C213.91053475 220.67202522 215.19504329 222.34483207 216.47900391 224.01806641 C217.58227259 225.45568039 218.68619958 226.89278925 219.79052734 228.32958984 C229.06782716 240.40899381 238.19322658 252.57294217 247 265 C247.6290625 265.88413574 248.258125 266.76827148 248.90625 267.67919922 C277.0760746 307.35491164 300.45108842 349.51888872 317.42578125 395.140625 C319.19156627 399.88298213 321.03079051 404.58240561 322.953125 409.26293945 C329.16225915 424.52294499 332.67668216 440.54281202 335.75 456.6875 C335.94867676 457.7180249 336.14735352 458.7485498 336.35205078 459.81030273 C339.57289367 477.55253797 340.34982977 495.20407798 340.31567383 513.20678711 C340.31251944 516.66617575 340.33605997 520.12470082 340.36132812 523.58398438 C340.49344241 569.89034839 328.75759764 612.7462774 308.41894531 654.07519531 C306.99984691 657.00031555 305.62995541 659.94383001 304.2734375 662.8984375 C298.41551709 675.59728551 291.86716469 687.43489302 284 699 C283.32855957 699.98782471 283.32855957 699.98782471 282.64355469 700.99560547 C277.16049479 708.99088138 271.26546689 716.60000321 265 724 C264.55962402 724.52529297 264.11924805 725.05058594 263.66552734 725.59179688 C248.57791564 743.58147789 232.61135079 761.59206508 214 776 C213.030625 776.77472656 212.06125 777.54945313 211.0625 778.34765625 C181.57971514 801.60220281 146.69468219 822.22870484 111 834 C110.11973145 834.29422852 109.23946289 834.58845703 108.33251953 834.89160156 C55.30799087 852.29190217 -3.03414573 856.29545379 -58 847 C-58.93392578 846.84515137 -59.86785156 846.69030273 -60.83007812 846.53076172 C-66.28727093 845.5910506 -71.64396699 844.4026911 -77 843 C-77.88284668 842.76974121 -78.76569336 842.53948242 -79.67529297 842.30224609 C-126.79491169 829.75798876 -170.3447419 808.05429245 -208 777 C-208.81621826 776.33822754 -208.81621826 776.33822754 -209.64892578 775.66308594 C-218.91509643 768.11448074 -227.4107333 759.79663923 -235.875 751.375 C-236.40920563 750.8460614 -236.94341125 750.3171228 -237.49380493 749.77215576 C-244.46960541 742.84959339 -250.88123638 735.70629159 -257 728 C-257.86327863 726.97235786 -258.73168424 725.94895441 -259.609375 724.93359375 C-283.92054967 696.58534446 -302.99600581 663.92518569 -316 629 C-316.30663574 628.19159668 -316.61327148 627.38319336 -316.92919922 626.55029297 C-324.2315011 607.24985086 -328.56051482 587.31480947 -332 567 C-332.20044922 565.85063965 -332.40089844 564.7012793 -332.60742188 563.51708984 C-335.64608044 545.47692265 -336.39181972 527.70689454 -336.4375 509.4375 C-336.4436734 508.39416504 -336.4498468 507.35083008 -336.45620728 506.27587891 C-336.53349771 485.98783784 -334.41928492 466.31685894 -329.75 446.5625 C-329.60004578 445.91733429 -329.45009155 445.27216858 -329.29559326 444.60745239 C-323.25427939 418.63138529 -314.78665479 394.56608991 -303.171875 370.56640625 C-301.3972385 366.88020143 -299.74838832 363.15402338 -298.13720703 359.39404297 C-288.85609833 337.83037704 -276.32871948 317.91724848 -264 298 C-263.4215332 297.06397949 -262.84306641 296.12795898 -262.24707031 295.16357422 C-255.46816625 284.22423569 -248.38851593 273.53590533 -241 263 C-240.02207794 261.59639421 -239.04421446 260.19274761 -238.06640625 258.7890625 C-231.24873056 249.03522632 -224.20394509 239.47134223 -217 230 C-216.57509277 229.43861328 -216.15018555 228.87722656 -215.71240234 228.29882812 C-208.68869335 219.02296671 -201.37065684 210.00059071 -194 201 C-193.17113281 199.98550781 -192.34226562 198.97101563 -191.48828125 197.92578125 C-190.0260698 196.13693269 -188.56258295 194.34912567 -187.09765625 192.5625 C-185.68482406 190.83658209 -184.27604291 189.10734098 -182.87109375 187.375 C-175.24805289 177.99279587 -167.44705079 168.75624695 -159.3125 159.8125 C-156.26386776 156.45625802 -153.35346918 153.0237141 -150.5 149.5 C-144.18858417 141.72030341 -137.52952154 134.37152854 -130.3359375 127.3984375 C-128.39722109 125.40784908 -126.59013448 123.38320538 -124.78125 121.27734375 C-120.09817362 115.88045262 -114.96909139 110.95109823 -109.84765625 105.97460938 C-105.93660454 102.12057986 -102.30823825 98.21965541 -98.90234375 93.91015625 C-93.26936299 86.8940338 -86.9010233 80.63706292 -80.51586914 74.31005859 C-78.43248256 72.24502676 -76.35730835 70.17200604 -74.28320312 68.09765625 C-72.93797176 66.75733884 -71.59228423 65.41747909 -70.24609375 64.078125 C-69.63753036 63.47067444 -69.02896698 62.86322388 -68.40196228 62.23736572 C-64.65317712 58.52904944 -60.78838703 54.99924009 -56.79699707 51.55325317 C-49.60900797 45.34023977 -42.74824942 38.80478038 -36.07421875 32.046875 C-33.50647684 29.51298279 -30.82060143 27.15172751 -28.0859375 24.80078125 C-23.00321546 20.41288826 -18.04989001 15.87355539 -13.09375 11.34375 C-12.1346875 10.4671875 -11.175625 9.590625 -10.1875 8.6875 C-8.87845703 7.48673828 -8.87845703 7.48673828 -7.54296875 6.26171875 C-5.09272709 4.08247156 -2.57944103 2.02372662 0 0 Z " fill="#ffffff" transform="translate(510,65)"/></svg>